<?xml version="1.0" encoding="UTF-8"?>
<svg width="260px" height="253px" viewBox="0 0 260 253" version="1.1" xmlns="http://www.w3.org/2000/svg" xmlns:xlink="http://www.w3.org/1999/xlink">
  <g id="additional-award-from" stroke="none" stroke-width="1" fill="none" fill-rule="evenodd" transform="translate(1.000000, 0.000000)" opacity="0">
    <animate
      id="globalOpacity"
      attributeType="CSS"
      attributeName="opacity"
      from="0"
      to="1"
      dur="1s"
      begin="6s"
      fill="freeze"
      restart="never"
    />
    <animateTransform
      attributeName="transform"
      type="translate"
      values="100.000000 0.000000; 1.000000 0.000000"
      dur="1s"
      additive="sum"
      begin="globalOpacity.begin"
      fill="freeze"
    />
    <g id="suitcase-group" transform="translate(8.950000, 132.670000)">
      <g id="opened-suitcase" opacity="0">
        <animate
          id="openedSuitcase"
          attributeType="CSS"
          attributeName="opacity"
          from="0"
          to="1"
          dur="1ms"
          begin="globalOpacity.begin + 1.5s"
          fill="freeze"
        />
        <path d="M198.74,21.63 C201.8825,21.63 204.43,19.0825002 204.43,15.94 C204.43,12.7974998 201.8825,10.25 198.74,10.25 C195.5975,10.25 193.05,12.7974998 193.05,15.94 C193.05,19.0825002 195.5975,21.63 198.74,21.63" id="Path" fill="#A67EE5" fill-rule="nonzero"></path>
        <circle id="Oval" stroke="#FFFFFF" stroke-width="2" cx="198.74" cy="15.94" r="5.69"></circle>
        <path d="M185.11,1.42108547e-14 L12,1.42108547e-14 C5.41143983,1.42108547e-14 0.0549046642,5.3116686 0,11.9 L0,65.52 C0,72.6997017 5.82029825,78.52 13,78.52 L197,78.52 L197,11.9 C196.945371,5.33498939 191.625157,0.0325988999 185.06,1.42108547e-14" id="Path" fill="#A67EE5" fill-rule="nonzero"></path>
        <path d="M185.11,1.42108547e-14 L12,1.42108547e-14 C5.41143983,1.42108547e-14 0.0549046642,5.3116686 0,11.9 L0,65.52 C0,72.6997017 5.82029825,78.52 13,78.52 L197,78.52 L197,11.9 C196.945724,5.3543161 191.655636,0.0597791418 185.11,1.42108547e-14 Z" id="Path" stroke="#FFFFFF" stroke-width="2"></path>
        <path d="M15.05,78.52 L15.05,15.01 C15.05,6.72572875 21.7657288,0.01 30.05,0.01 L30.55,0.01" id="Path" stroke="#FFFFFF" stroke-width="2"></path>
      </g>
      <g id="closed-suitcase" transform="translate(14.920000, 47.319360)">
        <animate
          attributeType="CSS"
          attributeName="opacity"
          from="1"
          to="0"
          dur="1ms"
          begin="openedSuitcase.end"
          fill="freeze"
        />
        <path d="M154.77,0.0106399183 L11.57,0.0106399183 C5.1758858,0.038151256 0.00544354605,5.22646885 0,11.6206399 L0,31.3706399 L166.33,31.3706399 L166.33,11.6106399 C166.324586,5.22035116 161.160206,0.033633964 154.77,0.000639918252" id="Path" fill="#A67EE5" fill-rule="nonzero"></path>
        <path d="M154.77,0.0106399183 L11.57,0.0106399183 C5.1758858,0.038151256 0.00544354605,5.22646885 0,11.6206399 L0,31.3706399 L166.33,31.3706399 L166.33,11.6106399 C166.319093,5.22425328 161.156311,0.0436068315 154.77,0.0106399183 Z" id="Path" stroke="#FFFFFF" stroke-width="2"></path>
        <path d="M196,0.0106399183 L48.12,0.0106399183 C41.6281838,-0.0562513268 36.2995988,5.1294043 36.19,11.6206399 L36.19,31.3706399 L207.89,31.3706399 L207.89,11.6106399 C207.780401,5.1194043 202.451816,-0.0662513268 195.96,0.000639918252" id="Path" fill="#A67EE5" fill-rule="nonzero"></path>
        <path d="M196,0.0106399183 L48.12,0.0106399183 C41.6281838,-0.0562513268 36.2995988,5.1294043 36.19,11.6206399 L36.19,31.3706399 L207.89,31.3706399 L207.89,11.6106399 C207.775063,5.13905599 202.472449,-0.0342255713 196,0.0106399183 Z" id="Path" stroke="#FFFFFF" stroke-width="2"></path>
        <path d="M207.63,21.3606776 C209.79163,21.368736 211.744918,20.0728324 212.577753,18.0780657 C213.410589,16.083299 212.958671,13.7831971 211.433028,12.2518181 C209.907384,10.7204391 207.608994,10.2598937 205.611117,11.0852387 C203.613239,11.9105836 202.309962,13.8589948 202.309962,16.0206399 C202.304683,17.4350537 202.862833,18.7933602 203.861103,19.7953836 C204.859374,20.7974069 206.215576,21.3606776 207.63,21.3606776" id="Path" fill="#A67EE5" fill-rule="nonzero"></path>
        <ellipse id="Oval" stroke="#FFFFFF" stroke-width="2" cx="207.63" cy="16.0206399" rx="5.31" ry="5.34"></ellipse>
        <path d="M206.51,11.6106399 L206.51,21.3606399 L195.78,21.3606399 C194.262961,21.3579901 192.809109,20.7528061 191.738276,19.6782222 C190.667442,18.6036382 190.067346,17.1476789 190.069991,15.6306399 L190.069991,0.0106399183 L194.95,0.0106399183 C201.342491,0.0381702814 206.51,5.22808954 206.51,11.6206399" id="Path" fill="#A67EE5" fill-rule="nonzero"></path>
        <path d="M206.51,11.6106399 L206.51,21.3606399 L195.78,21.3606399 C194.262961,21.3579901 192.809109,20.7528061 191.738276,19.6782222 C190.667442,18.6036382 190.067346,17.1476789 190.069991,15.6306399 L190.069991,0.0106399183 L194.95,0.0106399183 C201.338591,0.0381511676 206.504557,5.22199165 206.51,11.6106399 Z" id="Path" stroke="#FFFFFF" stroke-width="2"></path>
      </g>
      <g id="content-group" transform="translate(18.050000, -132.670000)" opacity="0">
        <animate
          attributeType="CSS"
          attributeName="opacity"
          from="0"
          to="1"
          dur="1ms"
          begin="openedSuitcase.end"
          fill="freeze"
        />
        <g id="flowers-group" transform="translate(45.950000, 84.820000)">
          <animateTransform
            id="flowersGroupTransform"
            attributeName="transform"
            type="translate"
            from="0, 50"
            to="0, 0"
            dur="0.5s"
            additive="sum"
            begin="openedSuitcase.end"
          />
          <animateTransform
            attributeName="transform"
            type="rotate"
            from="75 65 127"
            to="0 65 127"
            additive="sum"
            dur="0.5s"
            begin="flowersGroupTransform.begin"
          />
          <g id="top-right-flower" transform="translate(61.540000, 0.000000)">
            <animateTransform
              attributeName="transform"
              type="rotate"
              values="0 0 116; 8 0 116; 3 0 116; 5 0 116; 0 0 116; 3 0 116; 0 0 116"
              dur="2s"
              begin="flowersGroupTransform.end"
              additive="sum"
              fill="freeze"
            />
            <path d="M1.42108547e-14,115.17 C1.42108547e-14,115.17 8.3,40.58 39.71,25.17" id="Path" stroke="#FFFFFF" stroke-width="2" stroke-linecap="round" stroke-linejoin="round"></path>
            <path d="M37.22,24.49 L46.49,0 C49.575963,0.372743868 52.5479088,1.39520227 55.21,3 C58.626494,0.678842224 63.2561129,1.39382613 65.813188,4.63752331 C68.3702632,7.88122049 67.984641,12.549825 64.93,15.33 C65.8577185,18.2957398 66.1507383,21.4235551 65.79,24.51 L39.79,27.81 C38.9389962,27.9169757 38.0940132,27.5711393 37.562212,26.8982063 C37.0304109,26.2252733 36.8892337,25.3232378 37.19,24.52" id="Path" fill="#3B7BF2" fill-rule="nonzero"></path>
          </g>
          <g id="bottom-right-flower" transform="translate(59.050000, 52.900000)">
            <animateTransform
              attributeName="transform"
              type="rotate"
              values="0 0 73; 8 0 73; 3 0 73; 5 0 73; 0 0 73; 3 0 73; 0 0 73"
              dur="2s"
              begin="flowersGroupTransform.end"
              additive="sum"
              fill="freeze"
            />
            <path d="M0,72.1 C0,72.1 6.89,27.42 37.95,15.57" id="Path" stroke="#FFFFFF" stroke-width="2" stroke-linecap="round" stroke-linejoin="round"></path>
            <path d="M32.61,16.47 L41.61,-1.42108547e-14 C43.8329055,0.545220295 45.9196254,1.54262473 47.74,2.93 C48.9836952,2.32830561 50.3984513,2.17975622 51.74,2.51 C53.2180438,2.84522019 54.5003627,3.7582208 55.300746,5.04522218 C56.1011294,6.33222356 56.3529492,7.88608925 56,9.36 C55.6606089,10.6819964 54.8451527,11.8321813 53.71,12.59 C54.1247998,14.7720833 54.0530959,17.018807 53.5,19.17 L34.16,19.06 C33.5358554,19.0752432 32.9503482,18.7586895 32.6213041,18.228106 C32.2922601,17.6975225 32.2689325,17.0323301 32.56,16.48" id="Path" fill="#3B7BF2" fill-rule="nonzero"></path>
          </g>
          <g id="left-flower" transform="translate(0.000000, 15.370000)">
            <animateTransform
              attributeName="transform"
              type="rotate"
              values="0 62 111; -15 62 111; 5 62 111; -12 62 111; 2 62 111; -5 62 111; 0 62 111"
              dur="4s"
              begin="flowersGroupTransform.end"
              additive="sum"
              fill="freeze"
            />
            <path d="M22.58,26.16 C46.68,58.61 58.39,110.16 58.39,110.16" id="Path" stroke="#3B7BF2" stroke-width="2" stroke-linecap="round" stroke-linejoin="round"></path>
            <path d="M6.54,18.22 C13.08,25.73 23.7,27.22 23.7,27.22 C23.7,27.22 23.7,16.5 17.17,9 C10.64,1.5 0,0 0,0 C0,0 0,10.72 6.54,18.22" id="Path" fill="#76ABFF" fill-rule="nonzero"></path>
            <path d="M33.98,28.54 C31.29,38.12 35.89,47.81 35.89,47.81 C35.89,47.81 44.89,41.95 47.56,32.36 C50.23,22.77 45.65,13.09 45.65,13.09 C45.65,13.09 36.65,18.95 33.98,28.54" id="Path" fill="#3B7BF2" fill-rule="nonzero"></path>
            <path d="M16.63,49.71 C26.22,52.41 35.89,47.8 35.89,47.8 C35.89,47.8 30.03,38.8 20.44,36.13 C10.85,33.46 1.18,38 1.18,38 C1.18,38 7.05,47 16.63,49.67" id="Path" fill="#3B7BF2" fill-rule="nonzero"></path>
            <path d="M46.91,54.52 C43.5,63.88 47.38,73.87 47.38,73.87 C47.38,73.87 56.77,68.69 60.17,59.34 C63.57,49.99 59.7,40 59.7,40 C59.7,40 50.31,45.18 46.91,54.53" id="Path" fill="#1553B7" fill-rule="nonzero"></path>
            <path d="M28.03,74.35 C37.39,77.75 47.38,73.88 47.38,73.88 C47.38,73.88 42.2,64.49 32.84,61.09 C23.48,57.69 13.49,61.56 13.49,61.56 C13.49,61.56 18.67,70.95 28.03,74.35" id="Path" fill="#1553B7" fill-rule="nonzero"></path>
          </g>
          <g id="small-flower" transform="translate(51.049013, 84.370000)">
            <animateTransform
              attributeName="transform"
              type="rotate"
              values="0 8 42; 15 8 42; -5 8 42; 12 8 42; -2 8 42; 5 8 42; 0 8 42"
              dur="3.5s"
              begin="flowersGroupTransform.end"
              additive="sum"
              fill="freeze"
            />
            <path d="M13.5509868,17.77 C15.8509868,26.87 11.2809868,35.89 11.2809868,35.89 C11.2809868,35.89 2.96098677,30.15 0.650986767,21.04 C-1.65901323,11.93 2.92098677,2.92 2.92098677,2.92 C2.92098677,2.92 11.2409868,8.67 13.5509868,17.77" id="Path" fill="#3B7BF2" fill-rule="nonzero"></path>
            <path d="M29.3909868,38.16 C20.2809868,40.47 11.2709868,35.89 11.2709868,35.89 C11.2709868,35.89 17.0109868,27.57 26.1209868,25.26 C35.2309868,22.95 44.2409868,27.53 44.2409868,27.53 C44.2409868,27.53 38.4909868,35.85 29.3909868,38.16" id="Path" fill="#3B7BF2" fill-rule="nonzero"></path>
            <path d="M18.3209868,24.67 C14.5124057,29.9669783 11.0678195,35.5164037 8.01098677,41.28" id="Path" stroke="#3B7BF2" stroke-width="2" stroke-linecap="round" stroke-linejoin="round"></path>
            <path d="M33.4509868,17.19 C27.2809868,24.27 17.2609868,25.63 17.2609868,25.63 C17.2609868,25.63 17.2609868,15.52 23.4209868,8.45 C29.5809868,1.38 39.6109868,0 39.6109868,0 C39.6109868,0 39.6109868,10.11 33.4509868,17.19" id="Path" fill="#76ABFF" fill-rule="nonzero"></path>
          </g>
        </g>
        <g id="balloon-group">
          <animateTransform
            id="balloonGroupTransform"
            attributeName="transform"
            type="translate"
            from="0, 250"
            to="0, 0"
            dur="1s"
            begin="openedSuitcase.end"
          />
          <animateTransform
            attributeName="transform"
            type="translate"
            values="0 0; 0 25; 0 5; 0 15; 0 5; 0 0; 0 5; 0 0"
            dur="2.5s"
            begin="balloonGroupTransform.end"
            additive="sum"
            fill="freeze"
          />
          <animateTransform
            attributeName="transform"
            type="rotate"
            values="0 34 212; 5 34 227; 0 34 222; -3 34 227; 3 34 212; 0 34 212; -2 34 212; 0 34 212"
            dur="2.5s"
            begin="balloonGroupTransform.end"
            additive="sum"
            fill="freeze"
          />
          <g id="balloon">
            <animateTransform
              attributeName="transform"
              type="rotate"
              values="65 34 90; 0 34 90;"
              dur="1s"
              begin="balloonGroupTransform.begin"
              fill="freeze"
            />
            <animateTransform
              attributeName="transform"
              type="rotate"
              values="0 34 90; 25 34 90; 0 34 90; -10 34 90; 10 34 90; 0 34 90; -5 34 90; 0 34 90"
              dur="2.5s"
              begin="balloonGroupTransform.end"
              fill="freeze"
            />
            <path d="M33.34,84.06 L31.15,87.85 C30.9148801,88.2654418 30.918523,88.7745954 31.1595635,89.1866304 C31.4006039,89.5986653 31.8426412,89.8513582 32.32,89.8500054 L36.69,89.8500054 C37.1655732,89.8478058 37.6043533,89.5937065 37.8429595,89.1823165 C38.0815657,88.7709265 38.0842451,88.2638888 37.85,87.85 L35.67,84.06 C35.4277895,83.6463205 34.9843711,83.3921107 34.505,83.3921107 C34.0256289,83.3921107 33.5822105,83.6463205 33.34,84.06" id="Path" fill="#FFFFFF" fill-rule="nonzero"></path>
            <path d="M34.5,1.61 C52.6639786,1.61551594 67.3889623,16.3360239 67.4,34.5 C67.4,52.67 52.31,83.39 34.15,83.39 C15.99,83.39 1.6,52.66 1.6,34.5 C1.61103774,16.3360239 16.3360214,1.61551594 34.5,1.61 M34.5,0 C15.4553139,0.0220424829 0.0220424829,15.4553139 0,34.5 C0,44.01 3.8,56.6 9.68,66.57 C16.68,78.45 25.36,84.99 34.14,84.99 C42.92,84.99 51.74,78.45 58.95,66.59 C65.05,56.59 69,43.95 69,34.5 C68.9779575,15.4553139 53.5446861,0.0220424829 34.5,0" id="Shape" fill="#FFFFFF" fill-rule="nonzero"></path>
            <path d="M22.82,34.58 C22.82,16.42 28.05,1.69 34.5,1.69 C16.3360214,1.69551594 1.61103774,16.4160239 1.6,34.58 C1.6,52.75 15.98,83.47 34.15,83.47 L34.32,83.47 C27.89,83.28 22.82,52.7 22.82,34.58" id="Path" fill="#76ABFF" fill-rule="nonzero"></path>
            <path d="M67.4,34.58 C67.3889623,16.4160239 52.6639786,1.69551594 34.5,1.69 C40.95,1.69 46.18,16.42 46.18,34.58 C46.18,52.74 40.89,83.06 34.5,83.45 C52.5,83.06 67.4,52.63 67.4,34.58" id="Path" fill="#1553B7" fill-rule="nonzero"></path>
            <path d="M46.18,34.58 C46.18,16.42 40.95,1.69 34.5,1.69 C28.05,1.69 22.82,16.42 22.82,34.58 C22.82,52.74 27.89,83.27 34.32,83.47 L34.5,83.47 C40.89,83.07 46.18,52.64 46.18,34.59" id="Path" fill="#3B7BF2" fill-rule="nonzero"></path>
            <path d="M27.3,27.55 C24.1519769,27.55 21.6,30.1019769 21.6,33.25 C21.6,36.3980231 24.1519769,38.95 27.3,38.95 C30.4480231,38.95 33,36.3980231 33,33.25 C33.0913159,31.7120854 32.520167,30.2086032 31.4307819,29.1192181 C30.3413968,28.029833 28.8379146,27.4586841 27.3,27.55 M27.3,35.55 C25.44,35.55 24.24,34.62 24.24,33.26 C24.24,31.9 25.45,30.97 27.3,30.97 C29.15,30.97 30.37,31.9 30.37,33.26 C30.37,34.62 29.12,35.55 27.3,35.55" id="Shape" fill="#FFFFFF" fill-rule="nonzero"></path>
            <path d="M41.5,27.5499996 C42.1637728,27.5495399 42.7726606,27.9184514 43.0795557,28.5070174 C43.3864508,29.0955833 43.3403644,29.8060171 42.96,30.35 L29.63,49.69 C29.0354433,50.3765127 28.0210016,50.5089799 27.2700956,49.9981595 C26.5191896,49.487339 26.2698264,48.4951407 26.69,47.69 L40.03,28.35 C40.361869,27.8653052 40.9125852,27.5768348 41.5,27.58" id="Path" fill="#FFFFFF" fill-rule="nonzero"></path>
            <path d="M42.97,39.07 C39.8219769,39.07 37.27,41.6219769 37.27,44.77 C37.27,47.9180231 39.8219769,50.47 42.97,50.47 C46.1180231,50.47 48.67,47.9180231 48.67,44.77 C48.7580511,43.2329601 48.1858487,41.7314178 47.0972155,40.6427845 C46.0085822,39.5541513 44.5070399,38.9819489 42.97,39.07 M42.97,47.07 C41.11,47.07 39.91,46.14 39.91,44.78 C39.91,43.42 41.12,42.49 42.97,42.49 C44.82,42.49 46.04,43.39 46.04,44.78 C46.04,46.17 44.83,47.07 42.97,47.07" id="Shape" fill="#FFFFFF" fill-rule="nonzero"></path>
          </g>
          <line x1="34.41" y1="88.9" x2="34.41" y2="211.21" id="Path" stroke="#FFFFFF" stroke-width="2" stroke-linecap="round"></line>
        </g>
        <g id="bird" transform="translate(189.000000, 89.144314)" fill="#FFFFFF" fill-rule="nonzero">
          <animateTransform
            id="birdTransform"
            attributeName="transform"
            type="translate"
            from="-160, 220"
            to="0, 0"
            dur="1s"
            additive="sum"
            fill="freeze"
            begin="openedSuitcase.end"
          />
          <animateTransform
            attributeName="transform"
            type="translate"
            values="0 0; -10 10; 5 -10; -10 10; 5 -5; 0 0"
            dur="2s"
            additive="sum"
            begin="birdTransform.end"
          />
          <animateTransform
            id="birdRotate"
            attributeName="transform"
            type="rotate"
            values="65 21 21; -25 41 1; 10 10 10; 0 30 15; -10 10 10; 0 21 21"
            dur="3s"
            begin="birdTransform.begin"
            additive="sum"
            fill="freeze"
          />
          <animateTransform
            attributeName="transform"
            type="translate"
            values="0 0; -5 5; 3 -5; -5 5; 3 -3; 0 0"
            dur="2s"
            additive="sum"
            repeatDur="indefinite"
            begin="birdRotate.end"
          />
          <animateTransform
            attributeName="transform"
            type="rotate"
            values="0 21 21; -5 0 21; 5 21 21; 0 0 21; -5 21 21; 0 21 21"
            dur="2s"
            begin="birdRotate.end"
            additive="sum"
            repeatDur="indefinite"
          />
          <path d="M16.9598873,16.8456863 C16.9445226,14.5526125 18.5245561,12.5567808 20.76,12.0456863 L20.76,12.0456863 L41.83,6.64568633 C34.05,21.4856863 22.65,21.7156863 21.83,21.7156863 L21.83,21.7156863 C19.1433512,21.6882701 16.9798601,19.502475 16.98,16.8156863" id="Path">
            <animate
              attributeName="d"
              values="
                M16.9598873,16.8456863 C16.9445226,14.5526125 18.5245561,12.5567808 20.76,12.0456863 L20.76,12.0456863 L41.83,6.64568633 C34.05,21.4856863 22.65,21.7156863 21.83,21.7156863 L21.83,21.7156863 C19.1433512,21.6882701 16.9798601,19.502475 16.98,16.8156863;
                M16.9598873,16.8456863 C16.9549966,14.5526125 17.4579314,12.5567808 18.1694874,12.0456863 L24.8762028,6.64568633 C22.3997792,21.4856863 18.7710865,21.7156863 18.5100752,21.7156863 C17.6548978,21.6882701 16.9662448,19.502475 16.9662893,16.8156863;
                M16.9597211,16.8456863 C16.9658544,14.5526125 16.330543,12.5567808 15.4316995,12.0456863 L6.9597211,6.64568633 C10.0879599,21.4856863 14.6717546,21.7156863 15.0014662,21.7156863 C16.0817334,21.6882701 16.9516456,19.502475 16.9515894,16.8156863;
                M16.9598873,16.8456863 C16.9549966,14.5526125 17.4579314,12.5567808 18.1694874,12.0456863 L24.8762028,6.64568633 C22.3997792,21.4856863 18.7710865,21.7156863 18.5100752,21.7156863 C17.6548978,21.6882701 16.9662448,19.502475 16.9662893,16.8156863;
                M16.9598873,16.8456863 C16.9445226,14.5526125 18.5245561,12.5567808 20.76,12.0456863 L20.76,12.0456863 L41.83,6.64568633 C34.05,21.4856863 22.65,21.7156863 21.83,21.7156863 L21.83,21.7156863 C19.1433512,21.6882701 16.9798601,19.502475 16.98,16.8156863;
              "
              dur="0.2s"
              repeatCount="indefinite"
              begin="birdTransform.begin"
            />
          </path>
          <path d="M0,2.90568633 L10.76,2.90568633 C11.4858137,1.11756921 13.2406486,-0.0364038748 15.17,0.005686328 C16.5606612,-0.0692735875 17.8862229,0.601125398 18.65,1.76568633 C19.200034,2.57630578 19.6594505,3.44483763 20.02,4.35568633 C20.65,5.92568633 24.02,20.1556863 25.91,23.5156863 C27.01,25.5156863 30.3,30.6756863 30.3,30.6756863 C30.5025167,31.0251504 30.6094351,31.4217831 30.61,31.8256863 L30.61,41.0456863 C30.61,41.0456863 27.5,39.9656863 27.5,37.1356863 L27.5,30.6056863 C25.59,30.8756863 21.5,28.9556863 19.17,27.7256863 C16.280086,26.3458118 14.011261,23.9342935 12.81,20.9656863 C11.5983578,18.039779 11.5589699,14.7598463 12.7,11.8056863 C13.1677775,10.903098 13.4371334,9.91091364 13.49,8.89568633 C13.43,7.75568633 12.1,6.17568633 11.31,4.84568633 L0,2.90568633 Z" id="Path"></path>
        </g>
      </g>
      <g id="suitcase" transform="translate(15.080000, 71.710000)">
        <path d="M210.02,36.43 C212.375129,36.6784118 214.639798,35.449842 215.715662,33.3401366 C216.791526,31.2304313 216.456081,28.6759083 214.872014,26.9154902 C213.287947,25.155072 210.782867,24.5528388 208.571717,25.4008687 C206.360566,26.2488987 204.900644,28.3718066 204.9,30.74 C204.752396,33.7216243 207.039387,36.2632212 210.02,36.43" id="Path" fill="#A67EE5" fill-rule="nonzero"></path>
        <ellipse id="Oval" stroke="#FFFFFF" stroke-width="2" cx="210.02" cy="30.73" rx="5.12" ry="5.69"></ellipse>
        <path d="M159.95,46.67 L11.95,46.67 C5.43618669,46.7257188 0.0987093158,41.5133037 0,35 L0,6.81 L171.89,6.81 L171.89,34.98 C171.796733,41.4917041 166.462134,46.705671 159.95,46.65" id="Path" fill="#A67EE5" fill-rule="nonzero"></path>
        <path d="M159.95,46.67 L11.95,46.67 C5.43618669,46.7257188 0.0987093158,41.5133037 0,35 L0,6.81 L171.89,6.81 L171.89,34.98 C171.807635,41.499549 166.469832,46.7255884 159.95,46.67 Z" id="Path" stroke="#FFFFFF" stroke-width="2"></path>
        <path d="M196.45,46.67016 L49.45,46.67016 C42.9584405,46.7034355 37.6568682,41.4911905 37.58,35 L37.58,6.81 L208.31,6.81 L208.31,34.98 C208.244038,41.4719038 202.942122,46.6888811 196.45,46.65" id="Path" fill="#A67EE5" fill-rule="nonzero"></path>
        <path d="M196.45,46.6702148 L49.45,46.6702148 C42.9584405,46.7034355 37.6568682,41.4911905 37.58,35 L37.58,6.81 L208.31,6.81 L208.31,34.98 C208.254985,41.4797384 202.949855,46.7088247 196.45,46.6702148 Z" id="Path" stroke="#FFFFFF" stroke-width="2"></path>
        <path d="M144.73,31.88 L110.22,31.88 C107.873033,31.9247474 105.930045,30.0666253 105.87,27.72 L105.87,16.02 C105.875236,15.6893492 106.01233,15.3744876 106.250812,15.1453945 C106.489294,14.9163014 106.809406,14.7919579 107.14,14.8 L110.02,14.8 C110.706566,14.7888179 111.273611,15.333539 111.29,16.02 L111.29,26.02 C111.311778,26.7467065 111.913054,27.3212591 112.64,27.31 L142.35,27.31 C143.076946,27.3212591 143.678222,26.7467065 143.7,26.02 L143.7,16.02 C143.705236,15.6893492 143.84233,15.3744876 144.080812,15.1453945 C144.319294,14.9163014 144.639406,14.7919579 144.97,14.8 L147.85,14.8 C148.536566,14.7888179 149.103611,15.333539 149.12,16.02 L149.12,27.71 C149.059955,30.0566253 147.116967,31.9147474 144.77,31.87" id="Path" fill="#A67EE5" fill-rule="nonzero"></path>
        <path d="M144.73,31.88 L110.22,31.88 C107.873033,31.9247474 105.930045,30.0666253 105.87,27.72 L105.87,16.02 C105.875236,15.6893492 106.01233,15.3744876 106.250812,15.1453945 C106.489294,14.9163014 106.809406,14.7919579 107.14,14.8 L110.02,14.8 C110.706566,14.7888179 111.273611,15.333539 111.29,16.02 L111.29,26.02 C111.311778,26.7467065 111.913054,27.3212591 112.64,27.31 L142.35,27.31 C143.076946,27.3212591 143.678222,26.7467065 143.7,26.02 L143.7,16.02 C143.705236,15.6893492 143.84233,15.3744876 144.080812,15.1453945 C144.319294,14.9163014 144.639406,14.7919579 144.97,14.8 L147.85,14.8 C148.536566,14.7888179 149.103611,15.333539 149.12,16.02 L149.12,27.71 C149.093843,28.8461341 148.615868,29.9249723 147.791906,30.7076421 C146.967944,31.4903119 145.865978,31.9122384 144.73,31.88 L144.73,31.88 Z" id="Path" stroke="#FFFFFF" stroke-width="2"></path>
        <rect id="Rectangle" fill="#A67EE5" fill-rule="nonzero" x="68.31" y="-8.8817842e-15" width="9.1" height="12.52"></rect>
        <rect id="Rectangle" stroke="#FFFFFF" stroke-width="2" x="68.31" y="-8.8817842e-15" width="9.1" height="12.52"></rect>
        <rect id="Rectangle" fill="#A67EE5" fill-rule="nonzero" x="177.58" y="-8.8817842e-15" width="9.1" height="12.52"></rect>
        <rect id="Rectangle" stroke="#FFFFFF" stroke-width="2" x="177.58" y="-8.8817842e-15" width="9.1" height="12.52"></rect>
        <path d="M208.31,34.92 L208.31,25.05 L197.91,25.05 C194.782127,25.1264105 192.307331,27.7220374 192.38,30.85 L192.38,46.67 L197.11,46.67 C203.27,46.67 208.31,41.38 208.31,34.92" id="Path" fill="#A67EE5" fill-rule="nonzero"></path>
        <path d="M208.31,34.92 L208.31,25.05 L197.91,25.05 C194.782127,25.1264105 192.307331,27.7220374 192.38,30.85 L192.38,46.67 L197.11,46.67 C203.27,46.67 208.31,41.39 208.31,34.92 Z" id="Path" stroke="#FFFFFF" stroke-width="2"></path>
        <path d="M29.73,19.35 L8.95,19.35 C8.39771525,19.35 7.95,18.9022847 7.95,18.35 L7.95,15.81 C7.95,15.2577153 8.39771525,14.81 8.95,14.81 L29.73,14.81 C30.2822847,14.81 30.73,15.2577153 30.73,15.81 L30.73,18.39 C30.73,18.9422847 30.2822847,19.39 29.73,19.39" id="Path" fill="#A67EE5" fill-rule="nonzero"></path>
        <path d="M29.73,19.3500003 L8.95,19.3500003 C8.39771525,19.3500003 7.95,18.9022847 7.95,18.35 L7.95,15.81 C7.95,15.2577153 8.39771525,14.81 8.95,14.81 L29.73,14.81 C30.2822847,14.81 30.73,15.2577153 30.73,15.81 L30.73,18.39 C30.7085188,18.9266039 30.2670335,19.3504298 29.73,19.3500003 Z" id="Path" stroke="#FFFFFF" stroke-width="2"></path>
      </g>
    </g>
    <line x1="0" y1="251.19" x2="257.52" y2="251.19" id="ground" stroke="#FFFFFF" stroke-width="2" stroke-linecap="round" stroke-linejoin="round"></line>
  </g>
</svg>
