<?xml version="1.0" encoding="UTF-8"?>
<svg width="321px" height="276px" viewBox="0 0 321 276" version="1.1" xmlns="http://www.w3.org/2000/svg" xmlns:xlink="http://www.w3.org/1999/xlink">
  <title>secondary-award-from</title>
  <g id="Page-1" stroke="none" stroke-width="1" fill="none" fill-rule="evenodd">
    <g id="secondary-award-from" transform="translate(1.000000, 1.000000)">
      <g id="clouds" transform="translate(0.000000, 0.050000)">
        <animate
          attributeType="CSS"
          attributeName="opacity"
          from="1"
          to="0"
          dur="0.25s"
          begin="middleCloudTransform.end - 1s"
          fill="freeze"
        />
        <g id="top_cloud" stroke-linecap="round" stroke="#FFFFFF" stroke-width="2">
          <animateTransform
            attributeName="transform"
            type="translate"
            from="0.150000, 0.007403"
            to="0.150000, -100.007403"
            dur="1s"
            fill="freeze"
            begin="caseMotion.begin + 2s"
          />
          <line x1="50.31" y1="22.67" x2="90.08" y2="22.67" id="Path"></line>
          <path d="M70.09,12.4 L42.73,12.4 C42.73,5.5516691 37.1783309,3.55271368e-15 30.33,3.55271368e-15 C23.4816691,3.55271368e-15 17.93,5.5516691 17.93,12.4 L0,12.4" id="Path"></path>
          <line x1="78.35" y1="12.4" x2="100.55" y2="12.4" id="Path"></line>
        </g>
        <g id="bottom_cloud" stroke-linecap="round" transform="translate(257.000000, 79.450000)" stroke="#FFFFFF" stroke-width="2">
          <animateTransform
            attributeName="transform"
            type="translate"
            from="257.150000, 79.457403"
            to="257.150000, -21.457403"
            dur="1s"
            fill="freeze"
            begin="caseMotion.begin + 2s"
          />
          <line x1="0" y1="10.78" x2="39.78" y2="10.78" id="Path"></line>
          <line x1="28.05" y1="0.5" x2="50.25" y2="0.5" id="Path"></line>
        </g>
        <path d="M220.64,63.95 L201.19,63.95 C200.93783,47.252633 189.079282,32.9898257 172.70848,29.6939979 C156.337677,26.3981702 139.883788,34.9610178 133.19,50.26 C129.247487,48.0715231 124.809159,46.9318129 120.3,46.95 C109.326839,46.9867199 99.4916946,53.7285528 95.5,63.95 L80.35,63.95 C74.5510101,63.95 69.85,68.6510101 69.85,74.45 C69.85,80.2489899 74.5510101,84.95 80.35,84.95 L220.65,84.95 C226.44899,84.95 231.15,80.2489899 231.15,74.45 C231.15,68.6510101 226.44899,63.95 220.65,63.95" id="middle_cloud" fill="#FFFFFF" fill-rule="nonzero">
          <animateTransform
            id="middleCloudTransform"
            attributeName="transform"
            type="translate"
            from="0, 0"
            to="0, -100"
            dur="1s"
            fill="freeze"
            begin="caseMotion.begin + 2s"
          />
        </path>
      </g>
      <g id="flowers" transform="translate(142.000000, 24.017290)">
        <g id="big_flower" transform="translate(94.707344, 111.000000)">
          <path d="M11.6326564,16.8027099 C12.2973126,16.3114875 13.19566,16.2796894 13.8933841,16.7226888 C14.5911082,17.1656882 14.9444791,17.9922281 14.7826564,18.8027099 C13.7826564,25.8027099 12.7126564,39.1327099 19.6326564,38.2027099 C24.5726564,37.5427099 2.98265643,6.67270989 38.9526564,0.0427098935 C39.7111719,-0.116469731 40.4933677,0.176914551 40.9601014,0.795657948 C41.4268352,1.41440134 41.4940708,2.24709816 41.1326564,2.93270989 C39.8126564,5.67270989 38.3026564,9.54270989 38.4026564,12.8327099 C38.4189972,13.7230477 39.0220109,14.4953374 39.8818127,14.7270899 C40.7416146,14.9588425 41.6510718,14.5942269 42.1126564,13.8327099 C46.2126564,7.68270989 57.2126564,-4.02729011 78.7026564,3.13270989 C79.4012789,3.35923607 79.9195451,3.95044347 80.0526564,4.67270989 C80.9826564,9.47270989 84.1826564,27.9127099 79.7626564,33.3927099 C74.6726564,39.7027099 64.7626564,37.5327099 63.5826564,43.6427099 C62.2826564,50.5527099 71.0926564,48.4627099 77.0026564,43.4227099 C77.6112483,42.8844173 78.485011,42.7678005 79.2134726,43.127643 C79.9419343,43.4874855 80.3803078,44.252266 80.3226564,45.0627099 C80.0726564,50.5127099 78.1426564,59.0627099 69.2026564,63.7527099 C55.4226564,70.9627099 45.7226564,56.7527099 44.0126564,59.8727099 C41.4226564,64.5327099 51.9526564,68.3427099 57.7926564,70.0527099 C58.5509159,70.2530636 59.1220935,70.8781175 59.253473,71.6513177 C59.3848524,72.4245179 59.0521841,73.20315 58.4026564,73.6427099 C47.8826564,81.3827099 29.2726564,83.9227099 21.4026564,68.2327099 C13.1026564,51.6427099 8.47265643,55.7427099 3.21265643,47.8527099 C-2.49734357,39.2827099 -1.11734357,25.3127099 11.5926564,16.8027099 M40.9926564,49.2727099 C41.4926564,52.0027099 46.1926564,52.7827099 49.3426564,52.2127099 C52.4926564,51.6427099 57.8126564,48.3827099 57.3426564,45.6527099 C56.8726564,42.9227099 50.7226564,41.7527099 47.5626564,42.3227099 C44.4026564,42.8927099 40.5126564,46.5427099 41.0126564,49.2727099" id="Shape" fill="#E81A5A" fill-rule="nonzero">
            <animateTransform
              attributeName="transform"
              type="rotate"
              values=" 0 16 56; -5 16 56; 0 16 56"
              dur="1.5s"
              repeatDur="indefinite"
              additive="sum"
            />
          </path>
          <path d="M11.1626564,137.86271 C11.1626564,137.86271 6.25265643,67.5927099 16.7026564,57.1427099" id="Path" stroke="#E81A5A" stroke-width="2"></path>
        </g>
        <g id="case" transform="translate(0.000000, 0.982710)">
          <animateMotion
            id="caseMotion"
            path="M156.848493,36.1863568 C151.642966,30.0438011 147.500973,22.8111509 141.231911,17.7586895 C119.510645,0.252744732 81.9443324,-0.400827335 56.7638213,2.34289922 C25.1875235,5.78352546 -7.69576713,44.001789 2.66549104,76.8115575 C14.6300684,114.698367 59.0716069,111.127652 90.6273581,116.533195 C104.985442,118.992754 129.221453,124.138441 130.23354,142.440357"
            dur="3s"
            additive="sum"
            fill="freeze"
          />
          <animateTransform
            attributeName="transform"
            type="scale"
            values="0.1 0.1; 0.2 0.2; 0.4 0.4; 1 1"
            dur="3s"
            additive="sum"
            fill="freeze"
          />
          <animateTransform
            attributeName="transform"
            type="translate"
            from="-178.000000, -150.000000"
            to="-128.000000, -141.000000"
            dur="3s"
            additive="sum"
            fill="freeze"
          />
          <animateTransform
            attributeName="transform"
            type="rotate"
            values="-45 0 57; 45 0 57; -15 0 57; 15 0 57; 0 0 57"
            dur="3s"
            additive="sum"
            fill="freeze"
          />
          <path d="M93.67,247.14 C95.6172853,247.134507 97.1945069,245.557285 97.2,243.61 L97.2,238.54 C97.2,236.590435 95.6195652,235.01 93.67,235.01 C91.7204348,235.01 90.14,236.590435 90.14,238.54 L90.14,243.61 C90.1509273,245.555021 91.7249791,247.129073 93.67,247.14" id="Path" fill="#A67EE5" fill-rule="nonzero"></path>
          <path d="M93.67,247.14 C95.6172853,247.134507 97.1945069,245.557285 97.2,243.61 L97.2,238.54 C97.2,236.590435 95.6195652,235.01 93.67,235.01 C91.7204348,235.01 90.14,236.590435 90.14,238.54 L90.14,243.61 C90.1509273,245.555021 91.7249791,247.129073 93.67,247.14 L93.67,247.14 Z" id="Path" stroke="#FFFFFF" stroke-width="2"></path>
          <path d="M18.13,247.14 C20.0772853,247.134507 21.6545069,245.557285 21.66,243.61 L21.66,238.54 C21.66,236.590435 20.0795652,235.01 18.13,235.01 C16.1804348,235.01 14.6,236.590435 14.6,238.54 L14.6,243.61 C14.6054931,245.557285 16.1827147,247.134507 18.13,247.14" id="Path" fill="#A67EE5" fill-rule="nonzero"></path>
          <path d="M18.13,247.14 C20.0772853,247.134507 21.6545069,245.557285 21.66,243.61 L21.66,238.54 C21.66,236.590435 20.0795652,235.01 18.13,235.01 C16.1804348,235.01 14.6,236.590435 14.6,238.54 L14.6,243.61 C14.6054931,245.557285 16.1827147,247.134507 18.13,247.14 Z" id="Path" stroke="#FFFFFF" stroke-width="2"></path>
          <path d="M12.7,238.55 L87.2,238.55 C93.4615908,238.533515 98.5335148,233.461591 98.55,227.2 L98.55,161.12 C98.5335148,154.858409 93.4615908,149.786485 87.2,149.77 L12.7,149.77 C6.43840919,149.786485 1.36648519,154.858409 1.35,161.12 L1.35,227.2 C1.36648519,233.461591 6.43840919,238.533515 12.7,238.55" id="Path" fill="#A67EE5" fill-rule="nonzero"></path>
          <rect id="Rectangle" stroke="#FFFFFF" stroke-width="2" x="1.35" y="149.78" width="97.2" height="88.78" rx="11.35"></rect>
          <path d="M41.04,137.41 L73.44,137.41 C75.6910409,137.415497 77.5145029,139.238959 77.52,141.49 L77.52,157.49 C77.52,158.147219 76.9872189,158.68 76.33,158.68 L73.63,158.68 C72.9727811,158.68 72.44,158.147219 72.44,157.49 L72.44,143.12 C72.44,142.418598 71.8714016,141.85 71.17,141.85 L43.31,141.85 C42.6085984,141.85 42.04,142.418598 42.04,143.12 L42.04,157.5 C42.04,158.157219 41.5072189,158.69 40.85,158.69 L38.15,158.69 C37.4927811,158.69 36.96,158.157219 36.96,157.5 L36.96,141.5 C36.9709821,139.247342 38.7973224,137.425468 41.05,137.42" id="Path" fill="#A67EE5" fill-rule="nonzero"></path>
          <path d="M41.04,137.41 L73.44,137.41 C75.6910409,137.415497 77.5145029,139.238959 77.52,141.49 L77.52,157.49 C77.52,158.147219 76.9872189,158.68 76.33,158.68 L73.63,158.68 C72.9727811,158.68 72.44,158.147219 72.44,157.49 L72.44,143.12 C72.44,142.418598 71.8714016,141.85 71.17,141.85 L43.31,141.85 C42.6085984,141.85 42.04,142.418598 42.04,143.12 L42.04,157.5 C42.04,158.157219 41.5072189,158.69 40.85,158.69 L38.15,158.69 C37.4927811,158.69 36.96,158.157219 36.96,157.5 L36.96,141.5 C36.9654676,139.247322 38.7873425,137.420982 41.04,137.41 Z" id="Path" stroke="#FFFFFF" stroke-width="2"></path>
          <path d="M27.12,238.55 L101.62,238.55 C107.881591,238.533515 112.953515,233.461591 112.97,227.2 L112.97,161.12 C112.953515,154.858409 107.881591,149.786485 101.62,149.77 L27.12,149.77 C20.8623148,149.791974 15.7964581,154.862298 15.78,161.12 L15.78,227.2 C15.8019435,233.45932 20.8706799,238.528057 27.13,238.55" id="Path" fill="#A67EE5" fill-rule="nonzero"></path>
          <path d="M27.12,238.55 L101.62,238.55 C107.881591,238.533515 112.953515,233.461591 112.97,227.2 L112.97,161.12 C112.953515,154.858409 107.881591,149.786485 101.62,149.77 L27.12,149.77 C20.8623148,149.791974 15.7964581,154.862298 15.78,161.12 L15.78,227.2 C15.8019082,233.455436 20.8645855,238.522578 27.12,238.55 Z" id="Path" stroke="#FFFFFF" stroke-width="2"></path>
          <line x1="96.01" y1="170.69" x2="32.75" y2="170.69" id="Path" stroke="#FFFFFF" stroke-width="2" stroke-linecap="round"></line>
          <line x1="96.01" y1="194.17" x2="32.75" y2="194.17" id="Path" stroke="#FFFFFF" stroke-width="2" stroke-linecap="round"></line>
          <line x1="96.01" y1="217.64" x2="32.75" y2="217.64" id="Path" stroke="#FFFFFF" stroke-width="2" stroke-linecap="round"></line>
          <path d="M9.9,171.94 L10.57,171.94 L10.57,216.4 L9.9,216.4 C7.9621205,216.394541 6.39097184,214.827856 6.38,212.89 L6.38,175.46 C6.38,174.526438 6.75085608,173.631112 7.41098413,172.970984 C8.07111218,172.310856 8.96643796,171.94 9.9,171.94" id="Path" fill="#A67EE5" fill-rule="nonzero"></path>
          <path d="M9.9,171.94 L10.57,171.94 L10.57,216.4 L9.9,216.4 C7.9621205,216.394541 6.39097184,214.827856 6.38,212.89 L6.38,175.46 C6.38,173.515958 7.95595768,171.94 9.9,171.94 L9.9,171.94 Z" id="Path" stroke="#FFFFFF" stroke-width="2"></path>
          <line x1="57.25" y1="137.13" x2="1.66" y2="57.3" id="Path" stroke="#FFFFFF" stroke-width="2" stroke-linecap="round" stroke-linejoin="round"></line>
          <line x1="57.25" y1="137.13" x2="38.71" y2="57.3" id="Path" stroke="#FFFFFF" stroke-width="2" stroke-linecap="round" stroke-linejoin="round"></line>
          <line x1="75.77" y1="57.3" x2="57.25" y2="137.13" id="Path" stroke="#FFFFFF" stroke-width="2" stroke-linecap="round" stroke-linejoin="round"></line>
          <line x1="112.83" y1="57.3" x2="57.25" y2="137.13" id="Path" stroke="#FFFFFF" stroke-width="2" stroke-linecap="round" stroke-linejoin="round"></line>
          <path d="M57.24,1.7 C87.9125566,1.72207255 112.768971,26.5874374 112.78,57.26 C112.78,50.5 104.48,45.01 94.25,45.01 C84.02,45.01 75.94,50.36 75.73,57.01 C75.73,57.09 75.73,57.18 75.73,57.27 C75.73,50.51 67.43,45.02 57.2,45.02 C46.97,45.02 38.66,50.51 38.66,57.27 C38.66,57.18 38.66,57.1 38.66,57.01 C38.44,50.37 30.24,45.01 20.14,45.01 C10.04,45.01 1.6199982,50.5 1.6199982,57.26 C1.61734697,42.5158022 7.47328176,28.3747266 17.8990042,17.9490042 C28.3247266,7.52328176 42.4658022,1.66734697 57.21,1.6699982 M57.21,0.01 C25.6210287,0.0651022975 0.0330236767,25.6709979 0,57.26 C0,57.8530609 0.316394126,58.4010719 0.829999943,58.6976023 C1.34360576,58.9941328 1.97639424,58.9941328 2.49000006,58.6976023 C3.00360587,58.4010719 3.32000007,57.8530609 3.32,57.26 C3.32,51.42 10.89,46.67 20.19,46.67 C29.3,46.67 36.87,51.33 37.05,57.05 L37.05,57.26 C37.05,58.1767927 37.7932073,58.9200002 38.71,58.9200002 C39.6267927,58.9200002 40.37,58.1767927 40.37,57.26 C40.37,51.42 47.94,46.67 57.24,46.67 C66.54,46.67 74.11,51.42 74.11,57.26 C74.11,58.1767927 74.8532073,58.9200002 75.77,58.9200002 C76.6867927,58.9200002 77.43,58.1767927 77.43,57.26 L77.43,57.05 C77.61,51.32 85.17,46.66 94.29,46.66 C103.59,46.66 111.16,51.41 111.16,57.25 C111.16,58.1667927 111.903207,58.91 112.82,58.91 C113.736793,58.91 114.48,58.1667927 114.48,57.25 C114.45245,25.6509234 88.849065,0.0385907163 57.25,7.10542736e-15" id="Shape" fill="#FFFFFF" fill-rule="nonzero"></path>
          <path d="M57.24,1.7 C67.16,1.7 75.24,22.6 75.78,57.03 C75.99,50.38 84.19,45.03 94.3,45.03 C104.41,45.03 112.78,50.53 112.78,57.26 C112.78,26.5584908 87.8915092,1.67 57.19,1.67" id="Path" fill="#E81A5A" fill-rule="nonzero"></path>
          <path d="M57.23,1.7 C26.5418224,1.69999801 1.66104289,26.5718244 1.65,57.26 C1.65,50.5 9.95,45.01 20.17,45.01 C30.39,45.01 38.47,50.36 38.69,57.01 C39.21,22.58 47.3,1.69 57.22,1.69" id="Path" fill="#FE6183" fill-rule="nonzero"></path>
          <path d="M57.24,1.7 C47.31,1.7 39.24,22.6 38.7,57.02 C38.7,57.11 38.7,57.19 38.7,57.28 C38.7,50.52 47,45.03 57.23,45.03 C67.46,45.03 75.78,50.53 75.78,57.26 C75.78,57.17 75.78,57.09 75.78,57 C75.27,22.57 67.18,1.67 57.26,1.67" id="Path" fill="#F7396B" fill-rule="nonzero"></path>
        </g>
        <g id="small_flower" transform="translate(88.000000, 189.982407)">
          <animateTransform
            attributeName="transform"
            type="rotate"
            values="-14 0 59; 0 0 59; -7 0 59; 0 0 59; -14 0 59"
            dur="4s"
            repeatDur="indefinite"
            additive="sum"
          />
          <path d="M77.79,14.4003033 C78.3672145,14.9624255 78.5797838,15.8011078 78.34,16.5703033 C77.28,20.0003033 73.76,29.4203033 66.24,32.9103033 C61.11,35.2903033 57.91,30.2103033 55.32,33.6803033 C52.73,37.1503033 57.42,38.6803033 62.24,37.9903033 C63.0908708,37.8507026 63.9432567,38.2305138 64.408424,38.9565226 C64.8735914,39.6825314 64.8624182,40.6156411 64.38,41.3303033 C61.8256786,45.3692978 57.4271503,47.8704218 52.65,48.0003033 C41.81,48.2703033 40.1,36.4203033 38.08,37.8103033 C35.36,39.7003033 39.35,44.3603033 42.47,47.3803033 C43.0807794,47.9661482 43.2931483,48.8547226 43.0132768,49.6534327 C42.7334054,50.4521427 42.0128619,51.0138206 41.17,51.0903033 C32.41,51.9303033 21.45,47.5803033 21.37,36.0903033 C21.29,23.1503033 17.12,24.2903033 16.26,17.7403033 C15.35,10.8603033 20.14,2.86030331 30,1.05030331 C30.8088913,0.902715932 31.6314227,1.22718477 32.1217082,1.88726604 C32.6119936,2.54734731 32.6849895,3.42854517 32.31,4.16030331 C29.9,8.89030331 26.31,16.7603033 29.49,16.7203033 C32.95,16.7203033 27.91,-5.85969669 57.92,1.46030331 C58.6565197,1.64201272 59.2437302,2.1967743 59.4669687,2.92178752 C59.6902072,3.64680074 59.5167475,4.43577998 59.01,5.00030331 L58.91,5.11030331 C58.2373635,5.85703176 58.1686154,6.96901642 58.7441486,7.79291252 C59.3196819,8.61680863 60.3874137,8.93490445 61.32,8.56030331 C64.98,7.04030331 70.48,7.29030331 77.79,14.4003033" id="Path" fill="#FE6183" fill-rule="nonzero"></path>
          <path d="M0,58.8803033 C0,58.8803033 3.48,28.7703033 21.7,28.7703033" id="Path" stroke="#FE6183" stroke-width="2"></path>
        </g>
      </g>
      <line x1="26" y1="274" x2="304" y2="274" id="ground" stroke="#FFFFFF" stroke-width="2"></line>
    </g>
  </g>
</svg>
